<?xml version="1.0" encoding="UTF-8"?>
<svg id="Lag_1" data-name="Lag 1" xmlns="http://www.w3.org/2000/svg" viewBox="0 0 1080 1080">
  <defs>
    <style>
      .cls-1 {
        fill: #fff;
      }
    </style>
  </defs>
  <path class="cls-1" d="M890.673592271596135,243.750229592824326H189.695115235477715c-66.59792154333627,0-120.586681500539271,53.988759957173897-120.586681500539271,120.603516162431333v350.682837127089442c0,66.597921543656412,53.988759957203001,120.586681500732084,120.586681500539271,120.586681500732084h700.97847703611842c66.614756205322919,0,120.603516162140295-53.988759957075672,120.603516162140295-120.586681500732084v-350.682837127089442c0-66.614756205257436-53.988759956817375-120.603516162431333-120.603516162140295-120.603516162431333ZM288.654126931531209,719.119071911420178l-55.013523730991437-335.436721597132419h96.685634160643531l29.851808384002652,229.022313366160233h1.29928253081016l111.579848534947814-229.022313366160233h91.48850403823235l-173.374993278659531,335.436721597132419h-102.516560638985538ZM783.237113606999628,481.667267005646863c1.869699251285056-17.746297977693757-2.725324331895536-29.725049112697889-13.721691114598798-36.031322858550993-10.964676964653336-6.211204292056209-24.718057897240215-9.380186073893128-41.13338352691062-9.380186073893128-5.197130122411181,0-10.83791769347954.316898178316478-17.017432167740481.982384352621011-6.211204292634648.633796356090897-11.978751135135099,2.059838157787453-17.30264052833445,4.183055951834831-5.355579211249278,2.186597429219546-10.172431519626116,5.323889393199352-14.355487471493689,9.44356570954551-4.183055951933056,4.119676316251571-6.876690466549917,9.602014798416349-8.112593361263862,16.542084900713235-1.457731619520928,8.20766281464239.348587995984417,14.894214374111471,5.482338482681371,20.123034314157849,5.133750486376812,5.165440304070216,12.263959495081508,9.38018607392587,21.422316844164015,12.61254749093132,9.158357349082507,3.26405123544464,19.774446318075206,6.179514474551979,31.848266906716162,8.778079535597499,12.105510406243411,2.59856506104552,24.337780083591497,5.418958846610622,36.791878485819325,8.429491539518494,12.86606603430846,3.04222251047031,25.288474618097098,6.686551559403597,37.267225753294042,11.028056600269338,12.010440952861245,4.341505041255004,22.309631743599311,10.045672248263145,30.992641825268947,17.207571075083251,8.683010082055262,7.130209008832026,15.084353281512449,16.003357997517014,19.26740923305988,26.587757148619858,4.151366134137788,10.616088968799886,4.848542126106622,23.703983727627929,2.059838158365892,39.263684275592823-3.929537409327168,22.056113201186236-11.661852957200608,40.562966806308395-23.165256824660901,55.457181180740008-11.535093685768516,14.925904191968584-25.256784800370951,26.936345144509687-41.165073344895063,35.999633040533809-15.844908908748039,9.094977713564731-33.337688343901391,15.496320912505325-52.351579034424503,19.172339779423055-19.077270325851714,3.644329048933287-38.091161016243859,5.482338482488558-57.105051706763334,5.482338482488558-19.4892379578705,0-38.15454065234735-1.933078887064767-56.059287718879204-5.830926478469337-17.904747066855634-3.897847591408208-33.30599852623709-10.394260244309407-46.172064560163562-19.457548139758728-12.897755851587135-9.094977713626577-22.626529921530164-21.105418666549667-29.249701845092204-35.999633040595654-6.654861741997593-14.925904191968584-8.397801721785072-33.654586521966849-5.22881993975534-56.154357172581513h87.590656446889625c-1.77462979745178,9.982292612676247-1.26759271269475,18.506853605376818,1.584490891018504,25.668752432135079,2.820393785725173,7.09851919122957,7.066829372986831,12.961135487366846,12.770996580544306,17.492779435153352,5.640787571453984,4.563333765709103,12.517478037552792,7.8907646367079,20.566691763098788,10.077362065861962,8.049213725804293,2.154907611617091,16.637154354415543,3.232361417492939,25.700442250119522,3.232361417492939,6.496412652519211,0,13.43648275439773-.760555627490248,20.851900123692758-2.281666882663558,7.383727551565244-1.521111255300639,14.323797653829388-3.897847591793834,20.725140852580807-7.130209008962993,6.401343199071562-3.232361417423817,12.07382058857911-7.542176640657999,16.922362714361952-12.961135487301362,4.848542126106622-5.418958846967143,8.017523908139992-12.232269677417207,9.47525552766092-20.43993249225241,2.47180578980624-13.848450386478362-4.880231943770923-24.211020812483184-22.024423382943496-31.151090914619999-17.144191439238057-6.908380284312443-41.545351158929407-13.848450386256445-73.171789340449322-20.756830670179625-12.866066033926472-3.04222251050669-25.320164436470805-6.591482106316107-37.330605389011907-10.711158422342123-12.042130770525546-4.087986498616374-22.436391014707624-9.506945345292479-31.151090914427186-16.225186722651415-8.778079535437428-6.718241377326194-15.274492187953001-15.14773291655365-19.520927775534801-25.288474618355394-4.246435587585438-10.140741701383376-5.070370850597101-22.594840103738534-2.440115972080093-37.330605388753611,3.86615777361294-21.612455751470407,11.218195507513883-39.327063911467121,22.182872472167219-53.175514297723566,10.901297329259251-13.816760568304744,23.957502270008263-24.749747715388366,39.231994457961264-32.767271623109991,15.274492188273143-7.985834090151911,31.848266906650679-13.626621661285753,49.721324155456387-16.89067289666491,17.873057249191334-3.232361417489301,35.90456358715528-4.848542125848326,54.062829196547682-4.848542125848326,18.15826560939604,0,35.46090613740671,1.742939979787479,51.939611402725859,5.197130121800001,16.478705264999007,3.454190142299922,30.707433465064241,9.316806438437197,42.654494782145775,17.492779435124248,11.915371499482717,8.239352632561349,21.105418666295009,19.172339779775939,27.538451683416497,32.767271623430133,6.4330330167395,13.626621661314857,8.683010081993416,30.83419273643085,6.718241377329832,51.591023406610475h-87.590656447664514Z"/>
</svg>