<?xml version="1.0" encoding="UTF-8"?>
<svg id="Lag_1" data-name="Lag 1" xmlns="http://www.w3.org/2000/svg" viewBox="0 0 637.874730518857177 352.92999267578125">
  <defs>
    <style>
      .cls-1 {
        fill: #fff;
      }
    </style>
  </defs>
  <path class="cls-1" d="M549.5999755859375,107.04998779296875c1.8699951171875-17.75-2.72998046875-29.72998046875-13.719970703125-36.02996826171875-10.97003173828125-6.22003173828125-24.72003173828125-9.3800048828125-41.1400146484375-9.3800048828125-5.20001220703125,0-10.84002685546875.30999755859375-17.02001953125.97998046875-6.2099609375.6300048828125-11.969970703125,2.05999755859375-17.29998779296875,4.17999267578125-5.3499755859375,2.19000244140625-10.16998291015625,5.33001708984375-14.3499755859375,9.44000244140625-4.19000244140625,4.1199951171875-6.8800048828125,9.6099853515625-8.1199951171875,16.54998779296875-1.45001220703125,8.20001220703125.3499755859375,14.8900146484375,5.489990234375,20.1199951171875,5.1300048828125,5.1700439453125,12.260009765625,9.3800048828125,21.41998291015625,12.61004638671875,9.15997314453125,3.26995849609375,19.77001953125,6.17999267578125,31.8499755859375,8.77996826171875,12.10003662109375,2.5999755859375,24.33001708984375,5.41998291015625,36.7900390625,8.42999267578125,12.8599853515625,3.0400390625,25.28997802734375,6.69000244140625,37.26995849609375,11.030029296875,12.010009765625,4.3399658203125,22.30999755859375,10.03997802734375,30.99005126953125,17.2099609375,8.67999267578125,7.1300048828125,15.0799560546875,16,19.26995849609375,26.58001708984375,4.1500244140625,10.6199951171875,4.84002685546875,23.71002197265625,2.05999755859375,39.27001953125-3.92999267578125,22.04998779296875-11.66998291015625,40.55999755859375-23.16998291015625,55.45001220703125-11.52996826171875,14.92999267578125-25.260009765625,26.93994140625-41.15997314453125,36-15.85003662109375,9.0999755859375-33.34002685546875,15.5-52.36004638671875,19.17999267578125-19.07000732421875,3.63995361328125-38.0899658203125,5.47998046875-57.0999755859375,5.47998046875-19.489990234375,0-38.15997314453125-1.92999267578125-56.05999755859375-5.83001708984375-17.9100341796875-3.89996337890625-33.30999755859375-10.39996337890625-46.16998291015625-19.4599609375-12.9000244140625-9.09002685546875-22.6300048828125-21.11004638671875-29.25-36-6.6600341796875-14.9300537109375-8.4000244140625-33.6500244140625-5.23004150390625-56.1500244140625h87.59002685546875c-1.780029296875,9.97998046875-1.27001953125,18.5,1.58001708984375,25.65997314453125,2.8199462890625,7.10003662109375,7.0699462890625,12.97003173828125,12.77996826171875,17.5,5.6400146484375,4.55999755859375,12.510009765625,7.8900146484375,20.55999755859375,10.07000732421875,8.04998779296875,2.1600341796875,16.6400146484375,3.239990234375,25.70001220703125,3.239990234375,6.5,0,13.44000244140625-.75994873046875,20.8499755859375-2.27996826171875,7.3900146484375-1.530029296875,14.33001708984375-3.9000244140625,20.73004150390625-7.1300048828125,6.39996337890625-3.239990234375,12.07000732421875-7.54998779296875,16.91998291015625-12.969970703125,4.8499755859375-5.4100341796875,8.02001953125-12.23004150390625,9.47998046875-20.44000244140625,2.47003173828125-13.84002685546875-4.8800048828125-24.21002197265625-22.02996826171875-31.1500244140625-17.1400146484375-6.90997314453125-41.5400390625-13.8499755859375-73.1700439453125-20.75-12.8699951171875-3.04998779296875-25.3199462890625-6.59002685546875-37.3299560546875-10.71002197265625-12.0400390625-4.0899658203125-22.44000244140625-9.50994873046875-31.1500244140625-16.22998046875-8.77996826171875-6.719970703125-15.27996826171875-15.1500244140625-19.52001953125-25.28997802734375-4.25-10.1400146484375-5.0699462890625-22.59002685546875-2.43994140625-37.33001708984375,3.8599853515625-21.6099853515625,11.219970703125-39.33001708984375,22.17999267578125-53.16998291015625,10.89996337890625-13.82000732421875,23.9599609375-24.75,39.22998046875-32.77001953125,15.27996826171875-7.989990234375,31.8499755859375-13.6300048828125,49.719970703125-16.8900146484375,17.8800048828125-3.22998046875,35.9100341796875-4.8499755859375,54.07000732421875-4.8499755859375,18.1600341796875,0,35.46002197265625,1.739990234375,51.94000244140625,5.20001220703125,16.48004150390625,3.449951171875,30.70001220703125,9.30999755859375,42.6500244140625,17.489990234375,11.91998291015625,8.239990234375,21.1099853515625,19.16998291015625,27.53997802734375,32.76995849609375,6.42999267578125,13.62005615234375,8.67999267578125,30.83001708984375,6.72003173828125,51.59002685546875h-87.59002685546875Z"/>
  <polygon class="cls-1" points="330.90997314453125 9.05999755859375 157.52996826171875 344.5 55.010009765625 344.5 0 9.05999755859375 96.69000244140625 9.05999755859375 126.53997802734375 238.08001708984375 127.8399658203125 238.08001708984375 239.41998291015625 9.05999755859375 330.90997314453125 9.05999755859375"/>
</svg>